<svg id="visual" viewBox="0 0 960 300" width="960" height="300" xmlns="http://www.w3.org/2000/svg" xmlns:xlink="http://www.w3.org/1999/xlink" version="1.1"><rect x="0" y="0" width="960" height="300" fill="#202731"></rect><path d="M0 84L22.8 88C45.7 92 91.3 100 137 104C182.7 108 228.3 108 274 105.5C319.7 103 365.3 98 411.2 95.3C457 92.7 503 92.3 548.8 96C594.7 99.7 640.3 107.3 686 110.5C731.7 113.7 777.3 112.3 823 107C868.7 101.7 914.3 92.3 937.2 87.7L960 83L960 0L937.2 0C914.3 0 868.7 0 823 0C777.3 0 731.7 0 686 0C640.3 0 594.7 0 548.8 0C503 0 457 0 411.2 0C365.3 0 319.7 0 274 0C228.3 0 182.7 0 137 0C91.3 0 45.7 0 22.8 0L0 0Z" fill="#fa7268"></path><path d="M0 67L22.8 70C45.7 73 91.3 79 137 80C182.7 81 228.3 77 274 75C319.7 73 365.3 73 411.2 76.2C457 79.3 503 85.7 548.8 84.5C594.7 83.3 640.3 74.7 686 71.2C731.7 67.7 777.3 69.3 823 70.5C868.7 71.7 914.3 72.3 937.2 72.7L960 73L960 0L937.2 0C914.3 0 868.7 0 823 0C777.3 0 731.7 0 686 0C640.3 0 594.7 0 548.8 0C503 0 457 0 411.2 0C365.3 0 319.7 0 274 0C228.3 0 182.7 0 137 0C91.3 0 45.7 0 22.8 0L0 0Z" fill="#f3665b"></path><path d="M0 70L22.8 68.3C45.7 66.7 91.3 63.3 137 64C182.7 64.7 228.3 69.3 274 70.5C319.7 71.7 365.3 69.3 411.2 65.7C457 62 503 57 548.8 56.2C594.7 55.3 640.3 58.7 686 61.3C731.7 64 777.3 66 823 63.7C868.7 61.3 914.3 54.7 937.2 51.3L960 48L960 0L937.2 0C914.3 0 868.7 0 823 0C777.3 0 731.7 0 686 0C640.3 0 594.7 0 548.8 0C503 0 457 0 411.2 0C365.3 0 319.7 0 274 0C228.3 0 182.7 0 137 0C91.3 0 45.7 0 22.8 0L0 0Z" fill="#ec594d"></path><path d="M0 54L22.8 51.5C45.7 49 91.3 44 137 44.2C182.7 44.3 228.3 49.7 274 52C319.7 54.3 365.3 53.7 411.2 52.8C457 52 503 51 548.8 48.3C594.7 45.7 640.3 41.3 686 38.3C731.7 35.3 777.3 33.7 823 35.8C868.7 38 914.3 44 937.2 47L960 50L960 0L937.2 0C914.3 0 868.7 0 823 0C777.3 0 731.7 0 686 0C640.3 0 594.7 0 548.8 0C503 0 457 0 411.2 0C365.3 0 319.7 0 274 0C228.3 0 182.7 0 137 0C91.3 0 45.7 0 22.8 0L0 0Z" fill="#e54c3f"></path><path d="M0 22L22.8 24.3C45.7 26.7 91.3 31.3 137 33.2C182.7 35 228.3 34 274 33C319.7 32 365.3 31 411.2 28.5C457 26 503 22 548.8 22.3C594.7 22.7 640.3 27.3 686 28.2C731.7 29 777.3 26 823 23C868.7 20 914.3 17 937.2 15.5L960 14L960 0L937.2 0C914.3 0 868.7 0 823 0C777.3 0 731.7 0 686 0C640.3 0 594.7 0 548.8 0C503 0 457 0 411.2 0C365.3 0 319.7 0 274 0C228.3 0 182.7 0 137 0C91.3 0 45.7 0 22.8 0L0 0Z" fill="#dd3f31"></path></svg>