<svg id="visual" viewBox="0 0 960 300" width="960" height="300" xmlns="http://www.w3.org/2000/svg" xmlns:xlink="http://www.w3.org/1999/xlink" version="1.1"><path d="M0 46L14.5 51C29 56 58 66 87.2 79C116.3 92 145.7 108 174.8 112.5C204 117 233 110 262 100.5C291 91 320 79 349 78.5C378 78 407 89 436.2 86C465.3 83 494.7 66 523.8 65.5C553 65 582 81 611 88.5C640 96 669 95 698 86C727 77 756 60 785.2 66C814.3 72 843.7 101 872.8 114C902 127 931 124 945.5 122.5L960 121L960 0L945.5 0C931 0 902 0 872.8 0C843.7 0 814.3 0 785.2 0C756 0 727 0 698 0C669 0 640 0 611 0C582 0 553 0 523.8 0C494.7 0 465.3 0 436.2 0C407 0 378 0 349 0C320 0 291 0 262 0C233 0 204 0 174.8 0C145.7 0 116.3 0 87.2 0C58 0 29 0 14.5 0L0 0Z" fill="#bb004d"></path><path d="M0 109L14.5 113C29 117 58 125 87.2 133.5C116.3 142 145.7 151 174.8 153C204 155 233 150 262 142.5C291 135 320 125 349 125.5C378 126 407 137 436.2 134.5C465.3 132 494.7 116 523.8 112C553 108 582 116 611 125.5C640 135 669 146 698 139.5C727 133 756 109 785.2 108C814.3 107 843.7 129 872.8 140C902 151 931 151 945.5 151L960 151L960 119L945.5 120.5C931 122 902 125 872.8 112C843.7 99 814.3 70 785.2 64C756 58 727 75 698 84C669 93 640 94 611 86.5C582 79 553 63 523.8 63.5C494.7 64 465.3 81 436.2 84C407 87 378 76 349 76.5C320 77 291 89 262 98.5C233 108 204 115 174.8 110.5C145.7 106 116.3 90 87.2 77C58 64 29 54 14.5 49L0 44Z" fill="#dd005a"></path><path d="M0 250L14.5 246C29 242 58 234 87.2 228C116.3 222 145.7 218 174.8 213C204 208 233 202 262 197C291 192 320 188 349 194C378 200 407 216 436.2 223C465.3 230 494.7 228 523.8 223.5C553 219 582 212 611 213C640 214 669 223 698 221.5C727 220 756 208 785.2 203.5C814.3 199 843.7 202 872.8 205C902 208 931 211 945.5 212.5L960 214L960 149L945.5 149C931 149 902 149 872.8 138C843.7 127 814.3 105 785.2 106C756 107 727 131 698 137.5C669 144 640 133 611 123.5C582 114 553 106 523.8 110C494.7 114 465.3 130 436.2 132.5C407 135 378 124 349 123.5C320 123 291 133 262 140.5C233 148 204 153 174.8 151C145.7 149 116.3 140 87.2 131.5C58 123 29 115 14.5 111L0 107Z" fill="#ff0066"></path><path d="M0 283L14.5 279C29 275 58 267 87.2 261.5C116.3 256 145.7 253 174.8 251.5C204 250 233 250 262 251C291 252 320 254 349 259.5C378 265 407 274 436.2 273.5C465.3 273 494.7 263 523.8 263C553 263 582 273 611 277C640 281 669 279 698 275C727 271 756 265 785.2 264.5C814.3 264 843.7 269 872.8 268C902 267 931 260 945.5 256.5L960 253L960 212L945.5 210.5C931 209 902 206 872.8 203C843.7 200 814.3 197 785.2 201.5C756 206 727 218 698 219.5C669 221 640 212 611 211C582 210 553 217 523.8 221.5C494.7 226 465.3 228 436.2 221C407 214 378 198 349 192C320 186 291 190 262 195C233 200 204 206 174.8 211C145.7 216 116.3 220 87.2 226C58 232 29 240 14.5 244L0 248Z" fill="#ff4e83"></path><path d="M0 301L14.5 301C29 301 58 301 87.2 301C116.3 301 145.7 301 174.8 301C204 301 233 301 262 301C291 301 320 301 349 301C378 301 407 301 436.2 301C465.3 301 494.7 301 523.8 301C553 301 582 301 611 301C640 301 669 301 698 301C727 301 756 301 785.2 301C814.3 301 843.7 301 872.8 301C902 301 931 301 945.5 301L960 301L960 251L945.5 254.5C931 258 902 265 872.8 266C843.7 267 814.3 262 785.2 262.5C756 263 727 269 698 273C669 277 640 279 611 275C582 271 553 261 523.8 261C494.7 261 465.3 271 436.2 271.5C407 272 378 263 349 257.5C320 252 291 250 262 249C233 248 204 248 174.8 249.5C145.7 251 116.3 254 87.2 259.5C58 265 29 273 14.5 277L0 281Z" fill="#ff749e"></path></svg>