<svg id="visual" viewBox="0 0 960 930" width="960" height="930" xmlns="http://www.w3.org/2000/svg" xmlns:xlink="http://www.w3.org/1999/xlink" version="1.1"><rect x="0" y="0" width="960" height="930" fill="#202731"></rect><path d="M0 381L22.8 374.3C45.7 367.7 91.3 354.3 137 349.2C182.7 344 228.3 347 274 352.8C319.7 358.7 365.3 367.3 411.2 351C457 334.7 503 293.3 548.8 292.3C594.7 291.3 640.3 330.7 686 332.8C731.7 335 777.3 300 823 286.8C868.7 273.7 914.3 282.3 937.2 286.7L960 291L960 0L937.2 0C914.3 0 868.7 0 823 0C777.3 0 731.7 0 686 0C640.3 0 594.7 0 548.8 0C503 0 457 0 411.2 0C365.3 0 319.7 0 274 0C228.3 0 182.7 0 137 0C91.3 0 45.7 0 22.8 0L0 0Z" fill="#ff80b3"></path><path d="M0 229L22.8 237.3C45.7 245.7 91.3 262.3 137 277.2C182.7 292 228.3 305 274 301.7C319.7 298.3 365.3 278.7 411.2 268.3C457 258 503 257 548.8 264.8C594.7 272.7 640.3 289.3 686 294.7C731.7 300 777.3 294 823 290.7C868.7 287.3 914.3 286.7 937.2 286.3L960 286L960 0L937.2 0C914.3 0 868.7 0 823 0C777.3 0 731.7 0 686 0C640.3 0 594.7 0 548.8 0C503 0 457 0 411.2 0C365.3 0 319.7 0 274 0C228.3 0 182.7 0 137 0C91.3 0 45.7 0 22.8 0L0 0Z" fill="#ff6ca2"></path><path d="M0 192L22.8 190C45.7 188 91.3 184 137 191.2C182.7 198.3 228.3 216.7 274 212.8C319.7 209 365.3 183 411.2 168.7C457 154.3 503 151.7 548.8 150.8C594.7 150 640.3 151 686 157.2C731.7 163.3 777.3 174.7 823 181.5C868.7 188.3 914.3 190.7 937.2 191.8L960 193L960 0L937.2 0C914.3 0 868.7 0 823 0C777.3 0 731.7 0 686 0C640.3 0 594.7 0 548.8 0C503 0 457 0 411.2 0C365.3 0 319.7 0 274 0C228.3 0 182.7 0 137 0C91.3 0 45.7 0 22.8 0L0 0Z" fill="#ff558f"></path><path d="M0 147L22.8 142.2C45.7 137.3 91.3 127.7 137 126C182.7 124.3 228.3 130.7 274 141.3C319.7 152 365.3 167 411.2 160.2C457 153.3 503 124.7 548.8 123.5C594.7 122.3 640.3 148.7 686 157.3C731.7 166 777.3 157 823 158.2C868.7 159.3 914.3 170.7 937.2 176.3L960 182L960 0L937.2 0C914.3 0 868.7 0 823 0C777.3 0 731.7 0 686 0C640.3 0 594.7 0 548.8 0C503 0 457 0 411.2 0C365.3 0 319.7 0 274 0C228.3 0 182.7 0 137 0C91.3 0 45.7 0 22.8 0L0 0Z" fill="#ff397b"></path><path d="M0 64L22.8 72.2C45.7 80.3 91.3 96.7 137 100.2C182.7 103.7 228.3 94.3 274 94.2C319.7 94 365.3 103 411.2 105.5C457 108 503 104 548.8 99.3C594.7 94.7 640.3 89.3 686 85.8C731.7 82.3 777.3 80.7 823 77C868.7 73.3 914.3 67.7 937.2 64.8L960 62L960 0L937.2 0C914.3 0 868.7 0 823 0C777.3 0 731.7 0 686 0C640.3 0 594.7 0 548.8 0C503 0 457 0 411.2 0C365.3 0 319.7 0 274 0C228.3 0 182.7 0 137 0C91.3 0 45.7 0 22.8 0L0 0Z" fill="#ff0066"></path></svg>