<svg id="visual" viewBox="0 0 900 900" width="900" height="900" xmlns="http://www.w3.org/2000/svg" xmlns:xlink="http://www.w3.org/1999/xlink" version="1.1"><g stroke-width="1" stroke-linejoin="bevel"><path d="M490.3 393.7L483.3 248.1L419.7 381.7Z" fill="#15384f" stroke="#15384f"></path><path d="M483.3 248.1L393.7 258.1L419.7 381.7Z" fill="#297ea6" stroke="#297ea6"></path><path d="M490.3 393.7L613.9 394.7L483.3 248.1Z" fill="#19435d" stroke="#19435d"></path><path d="M651.9 256.1L521.3 153.6L483.3 248.1Z" fill="#205a7a" stroke="#205a7a"></path><path d="M483.3 248.1L403.7 143.6L393.7 258.1Z" fill="#0c2435" stroke="#0c2435"></path><path d="M521.3 153.6L403.7 143.6L483.3 248.1Z" fill="#081a28" stroke="#081a28"></path><path d="M357.7 534.3L541.3 498.3L490.3 393.7Z" fill="#277297" stroke="#277297"></path><path d="M490.3 393.7L541.3 498.3L613.9 394.7Z" fill="#0c2435" stroke="#0c2435"></path><path d="M613.9 394.7L651.9 256.1L483.3 248.1Z" fill="#205a7a" stroke="#205a7a"></path><path d="M227.1 232.1L247.1 401.7L393.7 258.1Z" fill="#277297" stroke="#277297"></path><path d="M393.7 258.1L247.1 401.7L419.7 381.7Z" fill="#15384f" stroke="#15384f"></path><path d="M419.7 381.7L357.7 534.3L490.3 393.7Z" fill="#112e42" stroke="#112e42"></path><path d="M247.1 401.7L357.7 534.3L419.7 381.7Z" fill="#205a7a" stroke="#205a7a"></path><path d="M403.7 143.6L290.1 159.6L393.7 258.1Z" fill="#15384f" stroke="#15384f"></path><path d="M290.1 159.6L227.1 232.1L393.7 258.1Z" fill="#19435d" stroke="#19435d"></path><path d="M651.9 256.1L612.9 109.6L521.3 153.6Z" fill="#15384f" stroke="#15384f"></path><path d="M521.3 153.6L534.3 0L403.7 143.6Z" fill="#1d4e6b" stroke="#1d4e6b"></path><path d="M403.7 143.6L385.7 0L290.1 159.6Z" fill="#19435d" stroke="#19435d"></path><path d="M675.9 508.3L739.4 351.7L613.9 394.7Z" fill="#205a7a" stroke="#205a7a"></path><path d="M613.9 394.7L739.4 351.7L651.9 256.1Z" fill="#205a7a" stroke="#205a7a"></path><path d="M651.9 256.1L742.4 153.6L612.9 109.6Z" fill="#112e42" stroke="#112e42"></path><path d="M541.3 498.3L675.9 508.3L613.9 394.7Z" fill="#00101c" stroke="#00101c"></path><path d="M612.9 659.9L675.9 508.3L541.3 498.3Z" fill="#15384f" stroke="#15384f"></path><path d="M109.6 503.3L222.1 517.3L247.1 401.7Z" fill="#205a7a" stroke="#205a7a"></path><path d="M247.1 401.7L222.1 517.3L357.7 534.3Z" fill="#205a7a" stroke="#205a7a"></path><path d="M787.4 237.1L742.4 153.6L651.9 256.1Z" fill="#15384f" stroke="#15384f"></path><path d="M621.9 0L534.3 0L612.9 109.6Z" fill="#15384f" stroke="#15384f"></path><path d="M612.9 109.6L534.3 0L521.3 153.6Z" fill="#205a7a" stroke="#205a7a"></path><path d="M534.3 0L385.7 0L403.7 143.6Z" fill="#246688" stroke="#246688"></path><path d="M104.6 143.6L109.6 276.1L227.1 232.1Z" fill="#00101c" stroke="#00101c"></path><path d="M739.4 351.7L787.4 237.1L651.9 256.1Z" fill="#15384f" stroke="#15384f"></path><path d="M900 367.7L787.4 237.1L739.4 351.7Z" fill="#15384f" stroke="#15384f"></path><path d="M363.7 667.9L496.3 676.9L357.7 534.3Z" fill="#297ea6" stroke="#297ea6"></path><path d="M357.7 534.3L496.3 676.9L541.3 498.3Z" fill="#081a28" stroke="#081a28"></path><path d="M742.4 153.6L621.9 0L612.9 109.6Z" fill="#205a7a" stroke="#205a7a"></path><path d="M104.6 143.6L227.1 232.1L290.1 159.6Z" fill="#246688" stroke="#246688"></path><path d="M227.1 232.1L109.6 276.1L247.1 401.7Z" fill="#081a28" stroke="#081a28"></path><path d="M266.1 644.9L363.7 667.9L357.7 534.3Z" fill="#297ea6" stroke="#297ea6"></path><path d="M496.3 676.9L612.9 659.9L541.3 498.3Z" fill="#277297" stroke="#277297"></path><path d="M222.1 517.3L266.1 644.9L357.7 534.3Z" fill="#297ea6" stroke="#297ea6"></path><path d="M142.6 623.9L266.1 644.9L222.1 517.3Z" fill="#277297" stroke="#277297"></path><path d="M109.6 276.1L94.6 400.7L247.1 401.7Z" fill="#112e42" stroke="#112e42"></path><path d="M385.7 0L263.1 0L290.1 159.6Z" fill="#246688" stroke="#246688"></path><path d="M760.4 621.9L779.4 540.3L675.9 508.3Z" fill="#081a28" stroke="#081a28"></path><path d="M675.9 508.3L779.4 540.3L739.4 351.7Z" fill="#19435d" stroke="#19435d"></path><path d="M94.6 400.7L109.6 503.3L247.1 401.7Z" fill="#297ea6" stroke="#297ea6"></path><path d="M263.1 0L104.6 143.6L290.1 159.6Z" fill="#112e42" stroke="#112e42"></path><path d="M109.6 276.1L0 379.7L94.6 400.7Z" fill="#1d4e6b" stroke="#1d4e6b"></path><path d="M612.9 659.9L760.4 621.9L675.9 508.3Z" fill="#205a7a" stroke="#205a7a"></path><path d="M900 524.3L900 367.7L779.4 540.3Z" fill="#246688" stroke="#246688"></path><path d="M779.4 540.3L900 367.7L739.4 351.7Z" fill="#1d4e6b" stroke="#1d4e6b"></path><path d="M787.4 237.1L900 96.6L742.4 153.6Z" fill="#15384f" stroke="#15384f"></path><path d="M269.1 776.4L419.7 756.4L363.7 667.9Z" fill="#246688" stroke="#246688"></path><path d="M363.7 667.9L419.7 756.4L496.3 676.9Z" fill="#246688" stroke="#246688"></path><path d="M496.3 676.9L533.3 768.4L612.9 659.9Z" fill="#15384f" stroke="#15384f"></path><path d="M612.9 659.9L675.9 736.4L760.4 621.9Z" fill="#081a28" stroke="#081a28"></path><path d="M900 367.7L900 241.1L787.4 237.1Z" fill="#112e42" stroke="#112e42"></path><path d="M742.4 153.6L793.4 0L621.9 0Z" fill="#277297" stroke="#277297"></path><path d="M109.6 503.3L142.6 623.9L222.1 517.3Z" fill="#297ea6" stroke="#297ea6"></path><path d="M266.1 644.9L269.1 776.4L363.7 667.9Z" fill="#15384f" stroke="#15384f"></path><path d="M419.7 756.4L533.3 768.4L496.3 676.9Z" fill="#1d4e6b" stroke="#1d4e6b"></path><path d="M900 96.6L793.4 0L742.4 153.6Z" fill="#0c2435" stroke="#0c2435"></path><path d="M533.3 768.4L675.9 736.4L612.9 659.9Z" fill="#112e42" stroke="#112e42"></path><path d="M104.6 143.6L0 285.1L109.6 276.1Z" fill="#112e42" stroke="#112e42"></path><path d="M94.6 400.7L0 533.3L109.6 503.3Z" fill="#00101c" stroke="#00101c"></path><path d="M109.6 503.3L0 533.3L142.6 623.9Z" fill="#0c2435" stroke="#0c2435"></path><path d="M0 285.1L0 379.7L109.6 276.1Z" fill="#0c2435" stroke="#0c2435"></path><path d="M900 644.9L900 524.3L779.4 540.3Z" fill="#0c2435" stroke="#0c2435"></path><path d="M900 644.9L779.4 540.3L760.4 621.9Z" fill="#081a28" stroke="#081a28"></path><path d="M104.6 143.6L0 123.6L0 285.1Z" fill="#297ea6" stroke="#297ea6"></path><path d="M263.1 0L98.6 0L104.6 143.6Z" fill="#00101c" stroke="#00101c"></path><path d="M900 241.1L900 96.6L787.4 237.1Z" fill="#205a7a" stroke="#205a7a"></path><path d="M142.6 623.9L269.1 776.4L266.1 644.9Z" fill="#112e42" stroke="#112e42"></path><path d="M419.7 756.4L529.3 900L533.3 768.4Z" fill="#297ea6" stroke="#297ea6"></path><path d="M98.6 0L0 123.6L104.6 143.6Z" fill="#297ea6" stroke="#297ea6"></path><path d="M0 379.7L0 533.3L94.6 400.7Z" fill="#0c2435" stroke="#0c2435"></path><path d="M142.6 623.9L128.6 796.4L269.1 776.4Z" fill="#0c2435" stroke="#0c2435"></path><path d="M627.9 900L758.4 755.4L675.9 736.4Z" fill="#277297" stroke="#277297"></path><path d="M675.9 736.4L758.4 755.4L760.4 621.9Z" fill="#277297" stroke="#277297"></path><path d="M900 96.6L900 0L793.4 0Z" fill="#246688" stroke="#246688"></path><path d="M758.4 755.4L900 644.9L760.4 621.9Z" fill="#00101c" stroke="#00101c"></path><path d="M98.6 0L0 0L0 123.6Z" fill="#15384f" stroke="#15384f"></path><path d="M0 533.3L0 660.9L142.6 623.9Z" fill="#15384f" stroke="#15384f"></path><path d="M238.1 900L406.7 900L269.1 776.4Z" fill="#19435d" stroke="#19435d"></path><path d="M269.1 776.4L406.7 900L419.7 756.4Z" fill="#297ea6" stroke="#297ea6"></path><path d="M533.3 768.4L627.9 900L675.9 736.4Z" fill="#15384f" stroke="#15384f"></path><path d="M406.7 900L529.3 900L419.7 756.4Z" fill="#19435d" stroke="#19435d"></path><path d="M0 749.4L128.6 796.4L142.6 623.9Z" fill="#19435d" stroke="#19435d"></path><path d="M529.3 900L627.9 900L533.3 768.4Z" fill="#297ea6" stroke="#297ea6"></path><path d="M758.4 755.4L900 788.4L900 644.9Z" fill="#0c2435" stroke="#0c2435"></path><path d="M128.6 796.4L238.1 900L269.1 776.4Z" fill="#15384f" stroke="#15384f"></path><path d="M0 660.9L0 749.4L142.6 623.9Z" fill="#112e42" stroke="#112e42"></path><path d="M128.6 796.4L148.6 900L238.1 900Z" fill="#1d4e6b" stroke="#1d4e6b"></path><path d="M776.4 900L900 788.4L758.4 755.4Z" fill="#246688" stroke="#246688"></path><path d="M627.9 900L776.4 900L758.4 755.4Z" fill="#205a7a" stroke="#205a7a"></path><path d="M0 900L148.6 900L128.6 796.4Z" fill="#00101c" stroke="#00101c"></path><path d="M776.4 900L900 900L900 788.4Z" fill="#246688" stroke="#246688"></path><path d="M0 749.4L0 900L128.6 796.4Z" fill="#112e42" stroke="#112e42"></path></g></svg>